<?xml version="1.0" encoding="iso-8859-1"?>
<!-- Generator: Adobe Illustrator 21.1.0, SVG Export Plug-In . SVG Version: 6.00 Build 0)  -->
<svg xmlns="http://www.w3.org/2000/svg" xmlns:xlink="http://www.w3.org/1999/xlink" version="1.1" id="Layer_1" x="0px" y="0px" viewBox="0 0 64 64" style="enable-background:new 0 0 64 64;" xml:space="preserve">
<title>Icons8 RSL Colored Part 6</title>
<path style="fill:#CED8ED;" d="M47,11H17C9.268,11,3,17.268,3,25v22h58V25C61,17.268,54.732,11,47,11z"/>
<path style="fill:#B5C4E0;" d="M17.38,11L17.38,11C24.902,11,31,17.098,31,24.62c0,0,0,0,0,0V47l0,0H3l0,0V25.38  C3,17.438,9.438,11,17.38,11z"/>
<path style="fill:#FAEFDE;" d="M31,47H11c-1.105,0-2-0.895-2-2V25c0-1.105,0.895-2,2-2h19.65"/>
<path style="fill:#FFF7F0;" d="M31,32.6l-4.83,3.5c-0.701,0.509-1.649,0.509-2.35,0L9,25.36l1-2.2L31,23V32.6z"/>
<path style="fill:#EFD8BE;" d="M10,47h21v-5H13c-2.209,0-4,1.791-4,4v0.23C9,46.78,9.45,47,10,47z"/>
<path style="fill:#FFFFFF;" d="M9.83,23.16H31c1.1,0,0,0.9,0,2h1c0,1.1,0.1,2-1,2H9.83C8.73,27.16,8.73,23.16,9.83,23.16z"/>
<rect x="29" y="53" style="fill:#C4939C;" width="8" height="11"/>
<path style="fill:#B5C4E0;" d="M35,42h22c2.209,0,4,1.791,4,4v1l0,0H31l0,0v-1C31,43.791,32.791,42,35,42z"/>
<path style="fill:#F9DD8F;" d="M61,47H3c-1.105,0-2,0.895-2,2l0,0c0,1.105,0.895,2,2,2h58c1.105,0,2-0.895,2-2l0,0  C63,47.895,62.105,47,61,47z"/>
<path style="fill:#ED7899;" d="M47,2c0-0.552-0.448-1-1-1h-8c-0.552,0-1,0.448-1,1v25c0,1.105,0.895,2,2,2l0,0c1.105,0,2-0.895,2-2  V7c-0.01-0.483,0.327-0.904,0.8-1l4.39-0.88c0.473-0.096,0.81-0.517,0.8-1L47,2z"/>
<ellipse transform="matrix(0.7071 -0.7071 0.7071 0.7071 -7.6727 35.486)" style="fill:#F9DD8F;" cx="38.999" cy="27.005" rx="3" ry="3"/>
<path style="fill:#CDA1A7;" d="M39.76,55H26.24c-0.759,0-1.452-0.43-1.79-1.11L23,51h20l-1.45,2.89C41.212,54.57,40.519,55,39.76,55  z"/>
<path style="fill:#8D6C9F;" d="M62,46.18V25c0-8.284-6.716-15-15-15h-5V7l4.39-0.88c0.95-0.189,1.629-1.031,1.61-2V2  c0-1.105-0.895-2-2-2h-8c-1.105,0-2,0.895-2,2v8H17C8.716,10,2,16.716,2,25v21.18c-1.557,0.565-2.362,2.286-1.797,3.843  C0.631,51.202,1.746,51.99,3,52h19.38l1.17,2.34c0.509,1.019,1.551,1.662,2.69,1.66H28v7c0,0.552,0.448,1,1,1s1-0.448,1-1v-7h6v7  c0,0.552,0.448,1,1,1s1-0.448,1-1v-7h1.76c1.135-0.002,2.173-0.644,2.68-1.66L43.62,52H61c1.657-0.013,2.989-1.366,2.977-3.023  C63.967,47.723,63.179,46.608,62,46.18z M38,12V2h8v2.18l-4.39,0.88C40.682,5.244,40.01,6.054,40,7v16.16  c-0.657-0.16-1.343-0.16-2,0V12z M37.59,25.59c0.121-0.123,0.259-0.227,0.41-0.31c0.615-0.372,1.385-0.372,2,0  c0.151,0.083,0.289,0.187,0.41,0.31c0.783,0.779,0.787,2.045,0.008,2.828s-2.045,0.787-2.828,0.008  c-0.783-0.779-0.787-2.045-0.008-2.828C37.584,25.596,37.587,25.593,37.59,25.59z M36,12v12.36c-0.648,0.726-1.004,1.667-1,2.64  c0,2.209,1.791,4,4,4s4-1.791,4-4c0.004-0.973-0.352-1.914-1-2.64V12h5c7.18,0,13,5.82,13,13v1h-6c-0.552,0-1,0.448-1,1s0.448,1,1,1  h6v18H32V25c-0.007-5.373-2.887-10.332-7.55-13H36z M29,46H11c-0.552,0-1-0.448-1-1V27.32l13.24,9.58c1.05,0.761,2.47,0.761,3.52,0  L30,34.56V46H29z M30,25v7.09l-4.41,3.2c-0.349,0.252-0.821,0.252-1.17,0L10,24.87c0.066-0.501,0.495-0.874,1-0.87h18.95  C30,24.33,30,24.66,30,25z M4,25c0.021-7.18,5.858-12.983,13.038-12.962C23.033,12.055,28.239,16.171,29.64,22H11  c-1.657,0-3,1.343-3,3v20c0.003,0.341,0.064,0.679,0.18,1H4V25z M40.66,53.45c-0.169,0.336-0.513,0.549-0.89,0.55H26.24  c-0.377-0.001-0.721-0.214-0.89-0.55L24.62,52h16.76L40.66,53.45z M61,50H3c-0.552,0-1-0.448-1-1s0.448-1,1-1h58  c0.552,0,1,0.448,1,1S61.552,50,61,50z"/>
<path style="fill:#8D6C9F;" d="M46,28h4c0.552,0,1-0.448,1-1s-0.448-1-1-1h-4c-0.552,0-1,0.448-1,1S45.448,28,46,28z"/>
<path style="fill:#8D6C9F;" d="M50,41v2c0,0.552,0.448,1,1,1s1-0.448,1-1v-2c0-0.552-0.448-1-1-1S50,40.448,50,41z"/>
<path style="fill:#8D6C9F;" d="M46,44c0.552,0,1-0.448,1-1v-2c0-0.552-0.448-1-1-1s-1,0.448-1,1v2C45,43.552,45.448,44,46,44z"/>
<path style="fill:#8D6C9F;" d="M56,44c0.552,0,1-0.448,1-1v-2c0-0.552-0.448-1-1-1s-1,0.448-1,1v2C55,43.552,55.448,44,56,44z"/>
<path style="fill:#8D6C9F;" d="M41,44c0.552,0,1-0.448,1-1v-2c0-0.552-0.448-1-1-1s-1,0.448-1,1v2C40,43.552,40.448,44,41,44z"/>
<path style="fill:#8D6C9F;" d="M36,44c0.552,0,1-0.448,1-1v-2c0-0.552-0.448-1-1-1s-1,0.448-1,1v2C35,43.552,35.448,44,36,44z"/>
</svg>
